<svg xmlns="http://www.w3.org/2000/svg" xmlns:xlink="http://www.w3.org/1999/xlink" xml:space="preserve" version="1.1" style="shape-rendering:geometricPrecision;text-rendering:geometricPrecision;image-rendering:optimizeQuality;" viewBox="0 0 8467 10583.75" data-name="Layer 1" x="0px" y="0px" fill-rule="evenodd" clip-rule="evenodd"><defs><style type="text/css">
   
    .fil0 {fill:black}
   
  </style></defs><g><path class="fil0" d="M6406 7210l968 0 0 565 -968 0 0 -565zm-684 -1607c36,0 75,10 110,15l344 52 0 2105 -454 0 0 -2172zm-692 1034l461 -841 0 1979 -461 0 0 -1138zm-1370 112c0,-22 21,-30 48,-49l282 -210c37,-27 79,-64 117,-84l7 1198c0,67 8,113 8,171l-462 0 0 -1026zm-684 -953c1,1 3,2 3,4l231 417c19,32 227,404 227,427l0 1131 -461 0 0 -1979zm-685 -126c64,0 417,-67 454,-67l0 2172 -454 0 0 -2105zm-1198 1540l967 0 0 565 -967 0 0 -565zm3245 -819l357 261c19,15 111,70 111,97l0 1026 -461 0c0,-467 -7,-914 -7,-1384zm2686 -327c39,26 109,122 138,167 39,57 82,137 109,204 67,168 103,315 103,544l-350 0 0 -915zm-618 -357c143,12 373,152 387,156l0 1116 -387 0 0 -1272zm-4732 156c26,-7 58,-33 86,-47 74,-38 220,-103 300,-109l0 1272 -386 0 0 -1116zm-231 201l0 915 -350 0c0,-280 68,-528 205,-740 30,-46 105,-148 145,-175zm3415 417c-27,-3 -41,-20 -61,-35l-415 -308c43,-64 431,-535 517,-644 48,-61 138,-163 175,-219 63,42 257,175 320,209 -8,34 -107,208 -131,248l-271 496c-20,41 -125,216 -134,253zm-1786 -997c32,-17 55,-35 87,-56l263 -168c85,127 386,508 499,655 17,23 157,200 164,223l-440 327c-25,18 -3,13 -37,16 -11,-47 -381,-696 -436,-807 -14,-26 -22,-35 -35,-61l-65 -129zm484 -670l228 121c31,16 50,28 77,43 54,27 102,52 170,68 200,49 434,33 596,-61l232 -126c21,-12 56,-32 81,-38 0,75 1,149 1,224 0,58 -27,72 -88,143 -36,43 -67,84 -102,129 -36,45 -67,82 -103,127l-203 251c-36,46 -66,84 -102,128 -18,23 -34,41 -50,62 -20,26 -33,39 -52,67 -27,-18 -76,-91 -100,-123l-541 -709c-21,-27 -41,-37 -44,-75 -5,-66 0,-162 0,-231zm-729 -2225c26,2 16,5 36,4l135 -12c111,-19 192,-46 285,-101l115 -86c176,-162 232,-490 671,-296 63,28 126,55 189,87 675,339 991,-125 1136,-125 102,0 185,137 218,214 51,118 74,201 86,353 15,181 -127,344 6,419 32,18 56,11 100,11 40,0 64,6 87,25 76,62 22,161 -2,247 -30,106 -83,184 -180,237 -125,70 -108,19 -133,180 -31,200 -145,524 -311,633l-608 330c-138,81 -245,135 -416,135 -214,0 -337,-110 -526,-204l-345 -184c-115,-66 -168,-78 -242,-181 -57,-79 -108,-175 -142,-275 -72,-211 -46,-177 -77,-347 -22,-124 -115,-60 -226,-199 -34,-43 -56,-77 -72,-136 -23,-86 -87,-214 0,-268 58,-36 125,12 197,-41 83,-60 19,-233 19,-420zm22 -223c-36,0 -59,-2 -90,-7 -24,-5 -21,1 -32,-20 -3,-8 -9,-36 -10,-42 -73,-310 -76,-427 -76,-743 0,-260 225,-530 398,-480 118,34 174,257 286,257 149,0 110,-152 133,-291 11,-64 28,-113 51,-165 34,-77 35,-70 126,-90 468,-105 890,-130 1372,-34 340,68 632,238 813,527 140,223 197,540 123,811 -12,45 -56,164 -87,187 -30,-125 -159,-330 -283,-394 -427,-222 -501,372 -1078,155 -34,-13 -72,-29 -106,-43 -272,-120 -545,-294 -846,-96 -242,159 -245,468 -694,468zm402 -1429c-96,-64 -138,-97 -275,-97 -173,0 -330,152 -407,255 -139,186 -159,341 -159,579 0,337 53,572 137,867 13,44 28,84 41,123 21,64 23,62 23,148 -139,12 -275,163 -275,327 0,99 84,352 155,441 44,55 133,146 202,162 0,47 19,131 30,172 57,222 178,505 363,640 58,43 153,84 223,128 15,9 24,6 24,28l0 320c0,24 -133,101 -153,114 -53,35 -273,193 -331,205 -74,16 -148,28 -226,42 -375,68 -552,46 -887,185 -113,47 -244,132 -329,207 -15,14 -21,15 -37,30 -13,12 -21,21 -33,33 -167,168 -290,323 -375,563 -43,120 -92,295 -92,451l0 1042c0,46 51,97 97,97l6533 0c46,0 97,-51 97,-97l0 -1042c0,-266 -126,-588 -268,-789 -90,-127 -197,-239 -322,-332 -193,-144 -406,-236 -656,-275 -99,-15 -712,-88 -786,-137l-318 -210c-24,-15 -57,-43 -83,-50l0 -372 202 -110c215,-135 360,-448 412,-690 6,-29 19,-110 32,-124l94 -63c144,-108 183,-240 227,-397 9,-34 30,-94 30,-134 0,-171 -116,-303 -253,-335 0,-51 11,-96 15,-149 3,-53 171,-358 207,-447 92,-227 94,-512 29,-750 -31,-114 -56,-168 -107,-271 -21,-42 -45,-81 -71,-116 -29,-39 -52,-73 -83,-110 -323,-384 -887,-531 -1389,-531 -409,0 -642,14 -1030,123 -65,18 -86,25 -118,76 -32,52 -108,198 -110,270z"/><path class="fil0" d="M3891 4040c0,68 26,126 112,126l476 0c35,0 61,-14 80,-31 64,-58 24,-192 -65,-192l-506 0c-46,0 -97,51 -97,97z"/><path class="fil0" d="M4821 3080c0,57 3,149 112,149 146,0 147,-246 15,-246 -73,0 -127,36 -127,97z"/><path class="fil0" d="M3452 3095c0,193 223,146 223,37l0 -52c0,-121 -223,-143 -223,15z"/></g><text x="0" y="8482" fill="#000000" font-size="5px" font-weight="bold" font-family="'Helvetica Neue', Helvetica, Arial-Unicode, Arial, Sans-serif">Created by icon scout</text><text x="0" y="8487" fill="#000000" font-size="5px" font-weight="bold" font-family="'Helvetica Neue', Helvetica, Arial-Unicode, Arial, Sans-serif">from the Noun Project</text></svg>