<svg xmlns="http://www.w3.org/2000/svg" data-name="Layer 1" viewBox="0 0 100 125" x="0px" y="0px"><title>Artboard 23</title><path d="M80.64,26.82a4.36,4.36,0,0,0-1.75-2.89L54.25,5.86a4.4,4.4,0,0,0-6.17.95L20.16,44.87A4.42,4.42,0,0,0,21.11,51L35.33,61.47l-1.66,3.07a5.46,5.46,0,0,0,4.8,8h.05a24,24,0,0,0-2.08,8.36,28.16,28.16,0,0,0,2.71,11.68A4.41,4.41,0,0,0,43.07,95H59.59a4.43,4.43,0,0,0,4.19-3c2.62-7.76,7-21.37,7-25.34,0-4.42-1.72-18.22-2.11-21.35L79.84,30.1A4.37,4.37,0,0,0,80.64,26.82ZM37.36,69.21a2.36,2.36,0,0,1-1-3.2l1.45-2.69,3.83,2.81c-.33.58-.74,1.33-1.19,2.21A2.35,2.35,0,0,1,37.36,69.21ZM60.84,91a1.32,1.32,0,0,1-1.25.89H43.07a1.32,1.32,0,0,1-1.17-.71,25.11,25.11,0,0,1-2.36-10.25c0-2.61,1.3-6.08,2.63-9v.74a1.55,1.55,0,1,0,3.1,0V57.3a2.93,2.93,0,0,1,5.86,0V72.71a1.55,1.55,0,1,0,3.1,0V65l4.5-6.13.37,4.57a1.54,1.54,0,0,0,1.54,1.42h.13a1.55,1.55,0,0,0,1.42-1.67l-.66-8.14L66,49c.64,5.27,1.69,14.43,1.69,17.71C67.7,69.16,65.07,78.49,60.84,91Zm16.5-62.74L54.23,59.77V57.3a6,6,0,0,0-12.06,0v5.34L22.94,48.54a1.32,1.32,0,0,1-.28-1.84L50.58,8.64a1.26,1.26,0,0,1,.86-.52,1.32,1.32,0,0,1,1,.23L77.06,26.43a1.28,1.28,0,0,1,.52.86A1.33,1.33,0,0,1,77.34,28.27Z"/><text x="0" y="115" fill="#000000" font-size="5px" font-weight="bold" font-family="'Helvetica Neue', Helvetica, Arial-Unicode, Arial, Sans-serif">Created by Naufal Hudallah</text><text x="0" y="120" fill="#000000" font-size="5px" font-weight="bold" font-family="'Helvetica Neue', Helvetica, Arial-Unicode, Arial, Sans-serif">from the Noun Project</text></svg>