<svg xmlns="http://www.w3.org/2000/svg" viewBox="0 0 1080 540">
  <defs>
    <style>
      .cls-1 {
        fill: #fbab00;
      }
    </style>
  </defs>
  <g id="Layer_2" data-name="Layer 2">
    <g id="Layer_1" data-name="Layer 1">
      <g>
        <g>
          <path class="cls-1" d="M54.35,173.67H116.1l47.24,290.07H117.75l-8.28-57.6V407H57.67l-8.29,56.77H7.11Zm49.73,193.94L83.77,224.23H83L63.06,367.61Z"/>
          <path class="cls-1" d="M185.29,173.67h67.55q35.22,0,51.38,16.37t16.16,50.35v17.82q0,45.17-29.83,57.18v.83q16.56,5,23.41,20.31t6.84,41v51a192.73,192.73,0,0,0,.83,20.1,50.31,50.31,0,0,0,4.14,15.12H279.36A65.92,65.92,0,0,1,276,450.48q-.82-6.21-.83-22.37V375.06q0-19.89-6.42-27.76t-22.17-7.87H230.88V463.74H185.29ZM247.45,298q13.68,0,20.51-7.05t6.84-23.62V245q0-15.75-5.59-22.79t-17.62-7H230.88V298Z"/>
          <path class="cls-1" d="M551.18,173.67h45.58V463.74H551.18Z"/>
          <path class="cls-1" d="M666.38,215.11H618.72V173.67H759.61v41.44H712V463.74H666.38Z"/>
          <path class="cls-1" d="M781.57,173.67h67.55q35.22,0,51.38,16.37t16.16,50.35v17.82q0,45.17-29.83,57.18v.83q16.56,5,23.41,20.31t6.84,41v51a192.73,192.73,0,0,0,.83,20.1,50.31,50.31,0,0,0,4.14,15.12H875.64a65.92,65.92,0,0,1-3.32-13.26q-.83-6.21-.82-22.37V375.06q0-19.89-6.43-27.76t-22.17-7.87H827.16V463.74H781.57ZM843.73,298q13.68,0,20.51-7.05t6.84-23.62V245q0-15.75-5.59-22.79t-17.61-7H827.16V298Z"/>
          <path class="cls-1" d="M948.57,173.67h124.32v41.44H994.15v76.66h62.58v41.44H994.15V422.3h78.74v41.44H948.57Z"/>
        </g>
        <g>
          <path class="cls-1" d="M413.76,220.29c0,13.21.11,26.41,0,39.62-.15,12.77,5.52,21.76,16.88,27.39,8.09,4,16.74,6.37,25.33,8.9,12.77,3.74,25.51,7.6,37.07,14.4,20.51,12.07,33.58,29.63,38,53.1,3.18,16.68.64,32.81-6.53,48.13-10.15,21.71-26.21,37.36-48.86,45.58-38.67,14-81.36-3.28-100.11-40.25a110.48,110.48,0,0,1-12.05-50.59q-.08-93.9,0-187.81c0-3.71.34-4,4-4h42.77c2.92,0,3.47.54,3.47,3.4Zm34.58,117.64a41.06,41.06,0,1,0-.23,82.11c22.12.18,40.82-18.24,41.21-40C489.73,357.12,471.32,337.93,448.34,337.93Z"/>
          <path class="cls-1" d="M428.94,464.63a86.62,86.62,0,0,0,37.68.27c-2.76,7-11,12.32-18.77,12.32S431.79,471.79,428.94,464.63Z"/>
        </g>
        <rect class="cls-1" x="324.19" y="85.83" width="15.83" height="67.74" rx="7.91" transform="translate(-5.74 222.1) rotate(-36.68)"/>
        <rect class="cls-1" x="433.34" y="83.89" width="15.83" height="67.74" rx="7.91" transform="translate(771.48 433.23) rotate(-151.25)"/>
        <rect class="cls-1" x="379.06" y="62.78" width="15.83" height="75.57" rx="7.91"/>
      </g>
    </g>
  </g>
</svg>
